<?xml version="1.0" standalone="no"?>
<!DOCTYPE svg PUBLIC "-//W3C//DTD SVG 20010904//EN"
 "http://www.w3.org/TR/2001/REC-SVG-20010904/DTD/svg10.dtd">
<svg version="1.0" xmlns="http://www.w3.org/2000/svg"
 width="1096.000000pt" height="702.000000pt" viewBox="0 0 1096.000000 702.000000"
 preserveAspectRatio="xMidYMid meet">

<g transform="translate(0.000000,702.000000) scale(0.100000,-0.100000)"
fill="#000000" stroke="none">
<path d="M5895 6986 c-239 -50 -444 -164 -672 -372 -406 -371 -615 -959 -628
-1769 -5 -381 28 -714 111 -1110 47 -224 84 -410 109 -545 13 -74 72 -362 130
-640 184 -880 192 -929 202 -1205 9 -252 -20 -414 -103 -576 -75 -145 -184
-250 -319 -305 -66 -27 -79 -28 -210 -28 -124 0 -150 3 -223 27 -97 31 -275
117 -318 154 -29 24 -29 24 -4 19 82 -20 195 -27 263 -17 232 35 460 260 528
519 26 100 29 270 5 362 -56 219 -222 416 -429 510 -108 49 -188 64 -332 64
-113 -1 -140 -4 -211 -27 -176 -58 -323 -191 -410 -370 -158 -328 47 -757 586
-1228 404 -353 805 -500 1183 -434 189 33 399 134 567 274 242 201 365 354
487 608 195 403 280 924 252 1535 -18 385 -48 574 -265 1628 -8 41 -42 201
-74 355 -91 434 -148 712 -165 810 -71 418 -59 755 35 961 87 193 245 334 419
374 84 20 268 8 361 -23 119 -40 294 -127 330 -164 13 -14 12 -15 -10 -9 -245
63 -435 6 -615 -186 -121 -128 -178 -253 -197 -428 -26 -236 57 -449 243 -624
131 -123 286 -188 489 -202 238 -18 469 98 610 306 75 110 104 204 104 330 -1
258 -156 527 -499 863 -295 291 -585 472 -876 548 -103 27 -358 35 -454 15z"/>
<path d="M1270 5545 c-217 -41 -411 -147 -589 -323 -207 -205 -377 -442 -506
-707 -169 -348 -198 -488 -115 -559 96 -80 282 -10 354 133 13 25 33 78 46
116 71 220 198 472 297 590 39 46 78 79 118 101 148 82 225 42 225 -116 -1
-98 -5 -113 -93 -390 -41 -129 -144 -451 -227 -715 -84 -264 -163 -514 -176
-555 -50 -157 -20 -255 90 -290 25 -8 80 -11 160 -8 104 3 129 8 178 30 66 31
137 98 169 160 12 23 46 120 74 213 29 94 83 267 120 385 37 118 91 292 120
385 29 94 85 274 125 400 40 127 76 244 81 262 24 84 134 205 232 255 50 25
125 33 157 16 57 -30 76 -134 45 -253 -9 -33 -31 -118 -50 -190 -19 -71 -62
-238 -96 -370 -34 -132 -81 -314 -104 -405 -24 -91 -66 -255 -95 -365 -28
-110 -60 -233 -71 -273 -26 -94 -19 -141 28 -193 45 -50 103 -63 255 -57 100
4 122 8 171 32 66 32 138 109 160 170 16 43 45 150 252 936 194 739 193 735
236 799 65 96 167 167 257 178 39 4 52 1 76 -18 68 -54 71 -134 17 -384 -22
-99 -53 -245 -70 -325 -18 -80 -38 -174 -46 -210 -22 -97 -100 -458 -130 -595
-14 -66 -35 -160 -47 -210 -66 -283 25 -459 236 -458 221 2 525 106 746 255
232 157 494 415 507 500 2 10 3 21 4 25 12 75 -42 143 -114 143 -23 0 -60 -9
-82 -19 -50 -23 -147 -98 -187 -146 -72 -84 -212 -174 -295 -191 -38 -7 -73
22 -73 63 0 22 50 263 130 633 12 52 25 115 30 140 27 134 83 392 111 510 29
120 33 151 33 280 0 133 -2 152 -28 225 -38 112 -90 200 -158 271 -75 79 -135
111 -231 124 -217 31 -473 -72 -684 -273 -54 -51 -63 -57 -69 -41 -55 173
-147 285 -258 315 -51 14 -200 6 -280 -16 -130 -35 -299 -130 -425 -239 l-65
-56 -21 58 c-39 107 -108 198 -179 234 -52 27 -172 33 -276 13z"/>
<path d="M8470 5444 c-129 -27 -313 -114 -429 -201 -170 -128 -383 -371 -547
-624 -87 -134 -233 -433 -280 -574 -65 -194 -55 -276 36 -323 81 -42 201 -11
287 74 53 54 71 90 127 256 54 163 154 376 231 494 100 153 206 238 313 251
86 10 132 -52 131 -174 0 -37 -8 -97 -18 -133 -113 -408 -685 -2120 -749
-2244 -49 -93 -121 -170 -196 -208 -70 -36 -218 -61 -454 -78 -78 -5 -157 -16
-175 -24 -70 -29 -115 -118 -102 -202 8 -53 53 -116 94 -134 35 -14 182 -11
491 10 201 14 902 14 1095 0 83 -6 224 -13 315 -16 162 -6 166 -6 200 17 54
37 82 101 77 174 -5 76 -29 122 -70 140 -18 7 -79 20 -136 29 -58 9 -121 24
-140 34 -93 45 -126 204 -80 385 23 94 154 488 176 530 19 37 73 60 121 51 20
-4 84 -28 142 -54 133 -60 272 -95 463 -117 179 -20 280 -11 417 35 295 101
658 383 847 659 198 289 293 611 293 994 0 177 -3 207 -25 295 -50 195 -172
394 -309 503 -235 187 -603 243 -911 139 -172 -59 -371 -181 -517 -317 -47
-45 -88 -81 -91 -81 -3 0 -8 16 -11 35 -12 64 -86 194 -147 259 -122 131 -286
180 -469 140z m1503 -446 c31 -17 49 -38 72 -82 29 -58 30 -64 29 -185 -2
-278 -150 -804 -324 -1151 -78 -155 -127 -228 -204 -305 -79 -78 -152 -120
-254 -146 -92 -23 -146 -18 -222 21 -113 58 -157 241 -115 486 103 606 407
1187 697 1333 126 63 240 73 321 29z"/>
</g>
</svg>
